<mxfile host="app.diagrams.net" modified="2024-02-28T17:44:05.057Z" agent="Mozilla/5.0 (Windows NT 10.0; Win64; x64) AppleWebKit/537.36 (KHTML, like Gecko) Chrome/122.0.0.0 Safari/537.36" etag="ChIfR9uR6x1CVDu_YEoS" version="23.1.0" type="github">
  <diagram name="Page-1" id="hKuly2Bz2IKXPWWTgTds">
    <mxGraphModel dx="2071" dy="1825" grid="1" gridSize="10" guides="1" tooltips="1" connect="1" arrows="1" fold="1" page="1" pageScale="1" pageWidth="850" pageHeight="1100" math="0" shadow="0">
      <root>
        <mxCell id="0" />
        <mxCell id="1" parent="0" />
        <mxCell id="SFf2Btg46Zuehb72WBfB-1" value="App.js" style="rounded=0;whiteSpace=wrap;html=1;" parent="1" vertex="1">
          <mxGeometry x="290" y="-100" width="120" height="60" as="geometry" />
        </mxCell>
        <mxCell id="SFf2Btg46Zuehb72WBfB-2" value="Home.js" style="rounded=0;whiteSpace=wrap;html=1;" parent="1" vertex="1">
          <mxGeometry x="-100" y="120" width="120" height="60" as="geometry" />
        </mxCell>
        <mxCell id="SFf2Btg46Zuehb72WBfB-3" value="About.js" style="rounded=0;whiteSpace=wrap;html=1;" parent="1" vertex="1">
          <mxGeometry x="60" y="120" width="120" height="60" as="geometry" />
        </mxCell>
        <mxCell id="SFf2Btg46Zuehb72WBfB-4" value="SignUpOrSignIn.js" style="rounded=0;whiteSpace=wrap;html=1;" parent="1" vertex="1">
          <mxGeometry x="-50" y="30" width="120" height="60" as="geometry" />
        </mxCell>
        <mxCell id="SFf2Btg46Zuehb72WBfB-6" value="Header.js" style="rounded=0;whiteSpace=wrap;html=1;" parent="1" vertex="1">
          <mxGeometry x="520" y="-30" width="120" height="60" as="geometry" />
        </mxCell>
        <mxCell id="SFf2Btg46Zuehb72WBfB-7" value="CurrentUser.js" style="rounded=0;whiteSpace=wrap;html=1;" parent="1" vertex="1">
          <mxGeometry x="670" y="-30" width="120" height="60" as="geometry" />
        </mxCell>
        <mxCell id="SFf2Btg46Zuehb72WBfB-14" value="CreateAndEditPost.js" style="rounded=0;whiteSpace=wrap;html=1;" parent="1" vertex="1">
          <mxGeometry x="220" y="120" width="120" height="60" as="geometry" />
        </mxCell>
        <mxCell id="SFf2Btg46Zuehb72WBfB-65" value="ViewPost.js" style="rounded=0;whiteSpace=wrap;html=1;" parent="1" vertex="1">
          <mxGeometry x="530" y="120" width="120" height="60" as="geometry" />
        </mxCell>
        <mxCell id="SFf2Btg46Zuehb72WBfB-67" value="Create.js" style="rounded=0;whiteSpace=wrap;html=1;" parent="1" vertex="1">
          <mxGeometry x="110" y="210" width="120" height="60" as="geometry" />
        </mxCell>
        <mxCell id="SFf2Btg46Zuehb72WBfB-68" value="PostCardList.js" style="rounded=0;whiteSpace=wrap;html=1;" parent="1" vertex="1">
          <mxGeometry x="-150" y="210" width="120" height="60" as="geometry" />
        </mxCell>
        <mxCell id="SFf2Btg46Zuehb72WBfB-69" value="Comments.js" style="rounded=0;whiteSpace=wrap;html=1;" parent="1" vertex="1">
          <mxGeometry x="470" y="210" width="120" height="60" as="geometry" />
        </mxCell>
        <mxCell id="SFf2Btg46Zuehb72WBfB-75" value="" style="endArrow=classic;html=1;rounded=0;entryX=1;entryY=0.5;entryDx=0;entryDy=0;exitX=0;exitY=1;exitDx=0;exitDy=0;" parent="1" source="cTr7hFYzPPPAO2Kh4fxT-1" target="SFf2Btg46Zuehb72WBfB-4" edge="1">
          <mxGeometry width="50" height="50" relative="1" as="geometry">
            <mxPoint x="500" y="380" as="sourcePoint" />
            <mxPoint x="550" y="330" as="targetPoint" />
          </mxGeometry>
        </mxCell>
        <mxCell id="SFf2Btg46Zuehb72WBfB-76" value="" style="endArrow=classic;html=1;rounded=0;entryX=1;entryY=0;entryDx=0;entryDy=0;exitX=0;exitY=1;exitDx=0;exitDy=0;" parent="1" source="cTr7hFYzPPPAO2Kh4fxT-1" target="SFf2Btg46Zuehb72WBfB-14" edge="1">
          <mxGeometry width="50" height="50" relative="1" as="geometry">
            <mxPoint x="375" y="70" as="sourcePoint" />
            <mxPoint x="80" y="140" as="targetPoint" />
          </mxGeometry>
        </mxCell>
        <mxCell id="SFf2Btg46Zuehb72WBfB-77" value="" style="endArrow=classic;html=1;rounded=0;entryX=0.5;entryY=0;entryDx=0;entryDy=0;exitX=0;exitY=1;exitDx=0;exitDy=0;" parent="1" source="cTr7hFYzPPPAO2Kh4fxT-1" target="SFf2Btg46Zuehb72WBfB-2" edge="1">
          <mxGeometry width="50" height="50" relative="1" as="geometry">
            <mxPoint x="320" y="50" as="sourcePoint" />
            <mxPoint x="250" y="140" as="targetPoint" />
          </mxGeometry>
        </mxCell>
        <mxCell id="SFf2Btg46Zuehb72WBfB-78" value="" style="endArrow=classic;html=1;rounded=0;entryX=0.5;entryY=0;entryDx=0;entryDy=0;exitX=0;exitY=1;exitDx=0;exitDy=0;" parent="1" source="cTr7hFYzPPPAO2Kh4fxT-1" target="SFf2Btg46Zuehb72WBfB-3" edge="1">
          <mxGeometry width="50" height="50" relative="1" as="geometry">
            <mxPoint x="375" y="70" as="sourcePoint" />
            <mxPoint x="350" y="140" as="targetPoint" />
          </mxGeometry>
        </mxCell>
        <mxCell id="SFf2Btg46Zuehb72WBfB-79" value="" style="endArrow=classic;html=1;rounded=0;entryX=0;entryY=0;entryDx=0;entryDy=0;exitX=1;exitY=1;exitDx=0;exitDy=0;" parent="1" source="cTr7hFYzPPPAO2Kh4fxT-1" target="SFf2Btg46Zuehb72WBfB-65" edge="1">
          <mxGeometry width="50" height="50" relative="1" as="geometry">
            <mxPoint x="495" y="70" as="sourcePoint" />
            <mxPoint x="520" y="140" as="targetPoint" />
          </mxGeometry>
        </mxCell>
        <mxCell id="SFf2Btg46Zuehb72WBfB-80" value="" style="endArrow=classic;html=1;rounded=0;exitX=1;exitY=1;exitDx=0;exitDy=0;entryX=0;entryY=0.5;entryDx=0;entryDy=0;" parent="1" source="SFf2Btg46Zuehb72WBfB-1" target="SFf2Btg46Zuehb72WBfB-6" edge="1">
          <mxGeometry width="50" height="50" relative="1" as="geometry">
            <mxPoint x="500" y="380" as="sourcePoint" />
            <mxPoint x="550" y="330" as="targetPoint" />
          </mxGeometry>
        </mxCell>
        <mxCell id="SFf2Btg46Zuehb72WBfB-82" value="" style="endArrow=classic;html=1;rounded=0;exitX=0.5;exitY=1;exitDx=0;exitDy=0;entryX=0.5;entryY=0;entryDx=0;entryDy=0;" parent="1" source="SFf2Btg46Zuehb72WBfB-14" target="SFf2Btg46Zuehb72WBfB-67" edge="1">
          <mxGeometry width="50" height="50" relative="1" as="geometry">
            <mxPoint x="160" y="200" as="sourcePoint" />
            <mxPoint x="50" y="270" as="targetPoint" />
          </mxGeometry>
        </mxCell>
        <mxCell id="SFf2Btg46Zuehb72WBfB-84" value="" style="endArrow=classic;html=1;rounded=0;exitX=0.5;exitY=1;exitDx=0;exitDy=0;entryX=0.5;entryY=0;entryDx=0;entryDy=0;" parent="1" source="SFf2Btg46Zuehb72WBfB-65" target="SFf2Btg46Zuehb72WBfB-69" edge="1">
          <mxGeometry width="50" height="50" relative="1" as="geometry">
            <mxPoint x="350" y="200" as="sourcePoint" />
            <mxPoint x="410" y="270" as="targetPoint" />
          </mxGeometry>
        </mxCell>
        <mxCell id="SFf2Btg46Zuehb72WBfB-90" value="" style="endArrow=classic;html=1;rounded=0;exitX=0.5;exitY=1;exitDx=0;exitDy=0;entryX=0.5;entryY=0;entryDx=0;entryDy=0;" parent="1" source="SFf2Btg46Zuehb72WBfB-2" target="SFf2Btg46Zuehb72WBfB-68" edge="1">
          <mxGeometry width="50" height="50" relative="1" as="geometry">
            <mxPoint x="460" y="320" as="sourcePoint" />
            <mxPoint x="280" y="230" as="targetPoint" />
          </mxGeometry>
        </mxCell>
        <mxCell id="SFf2Btg46Zuehb72WBfB-93" value="" style="endArrow=classic;html=1;rounded=0;entryX=0.5;entryY=0;entryDx=0;entryDy=0;exitX=0.5;exitY=1;exitDx=0;exitDy=0;" parent="1" source="SFf2Btg46Zuehb72WBfB-68" target="cTr7hFYzPPPAO2Kh4fxT-10" edge="1">
          <mxGeometry width="50" height="50" relative="1" as="geometry">
            <mxPoint x="460" y="510" as="sourcePoint" />
            <mxPoint x="370" y="360" as="targetPoint" />
          </mxGeometry>
        </mxCell>
        <mxCell id="SFf2Btg46Zuehb72WBfB-99" value="" style="endArrow=classic;html=1;rounded=0;entryX=0;entryY=0.5;entryDx=0;entryDy=0;exitX=1;exitY=0.5;exitDx=0;exitDy=0;" parent="1" source="SFf2Btg46Zuehb72WBfB-6" target="SFf2Btg46Zuehb72WBfB-7" edge="1">
          <mxGeometry width="50" height="50" relative="1" as="geometry">
            <mxPoint x="780" y="490" as="sourcePoint" />
            <mxPoint x="800" y="570" as="targetPoint" />
          </mxGeometry>
        </mxCell>
        <mxCell id="SFf2Btg46Zuehb72WBfB-100" value="ViewPlaylist.js" style="rounded=0;whiteSpace=wrap;html=1;" parent="1" vertex="1">
          <mxGeometry x="850" y="210" width="120" height="60" as="geometry" />
        </mxCell>
        <mxCell id="SFf2Btg46Zuehb72WBfB-102" value="PlaylistCardList.js" style="rounded=0;whiteSpace=wrap;html=1;" parent="1" vertex="1">
          <mxGeometry x="850" y="300" width="120" height="60" as="geometry" />
        </mxCell>
        <mxCell id="SFf2Btg46Zuehb72WBfB-106" value="" style="endArrow=classic;html=1;rounded=0;entryX=0.5;entryY=0;entryDx=0;entryDy=0;exitX=0.5;exitY=1;exitDx=0;exitDy=0;" parent="1" source="SFf2Btg46Zuehb72WBfB-102" target="cTr7hFYzPPPAO2Kh4fxT-36" edge="1">
          <mxGeometry width="50" height="50" relative="1" as="geometry">
            <mxPoint x="920" y="390" as="sourcePoint" />
            <mxPoint x="990" y="470" as="targetPoint" />
          </mxGeometry>
        </mxCell>
        <mxCell id="SFf2Btg46Zuehb72WBfB-108" value="" style="endArrow=classic;html=1;rounded=0;entryX=0.5;entryY=0;entryDx=0;entryDy=0;exitX=0.5;exitY=1;exitDx=0;exitDy=0;" parent="1" source="SFf2Btg46Zuehb72WBfB-100" target="SFf2Btg46Zuehb72WBfB-102" edge="1">
          <mxGeometry width="50" height="50" relative="1" as="geometry">
            <mxPoint x="920" y="230" as="sourcePoint" />
            <mxPoint x="550" y="310" as="targetPoint" />
          </mxGeometry>
        </mxCell>
        <mxCell id="SFf2Btg46Zuehb72WBfB-109" value="" style="endArrow=classic;html=1;rounded=0;entryX=0;entryY=0;entryDx=0;entryDy=0;exitX=1;exitY=1;exitDx=0;exitDy=0;" parent="1" source="cTr7hFYzPPPAO2Kh4fxT-1" target="cTr7hFYzPPPAO2Kh4fxT-3" edge="1">
          <mxGeometry width="50" height="50" relative="1" as="geometry">
            <mxPoint x="1030" y="200" as="sourcePoint" />
            <mxPoint x="1030" y="270" as="targetPoint" />
          </mxGeometry>
        </mxCell>
        <mxCell id="SFf2Btg46Zuehb72WBfB-110" value="PlaylistCardList.js" style="rounded=0;whiteSpace=wrap;html=1;" parent="1" vertex="1">
          <mxGeometry x="-20" y="210" width="120" height="60" as="geometry" />
        </mxCell>
        <mxCell id="SFf2Btg46Zuehb72WBfB-115" value="" style="endArrow=classic;html=1;rounded=0;entryX=0.5;entryY=0;entryDx=0;entryDy=0;exitX=0.5;exitY=1;exitDx=0;exitDy=0;" parent="1" target="cTr7hFYzPPPAO2Kh4fxT-11" edge="1" source="SFf2Btg46Zuehb72WBfB-110">
          <mxGeometry width="50" height="50" relative="1" as="geometry">
            <mxPoint x="380" y="440" as="sourcePoint" />
            <mxPoint x="530" y="360" as="targetPoint" />
          </mxGeometry>
        </mxCell>
        <mxCell id="SFf2Btg46Zuehb72WBfB-117" value="" style="endArrow=classic;html=1;rounded=0;entryX=0.5;entryY=0;entryDx=0;entryDy=0;exitX=0.5;exitY=1;exitDx=0;exitDy=0;" parent="1" source="SFf2Btg46Zuehb72WBfB-2" target="SFf2Btg46Zuehb72WBfB-110" edge="1">
          <mxGeometry width="50" height="50" relative="1" as="geometry">
            <mxPoint x="340" y="190" as="sourcePoint" />
            <mxPoint x="550" y="310" as="targetPoint" />
          </mxGeometry>
        </mxCell>
        <mxCell id="AQNpCEezPJI_9NqC1QD4-1" value="User" style="ellipse;whiteSpace=wrap;html=1;" parent="1" vertex="1">
          <mxGeometry x="460" y="3120" width="120" height="80" as="geometry" />
        </mxCell>
        <mxCell id="AQNpCEezPJI_9NqC1QD4-2" value="Post" style="ellipse;whiteSpace=wrap;html=1;" parent="1" vertex="1">
          <mxGeometry x="460" y="3390" width="120" height="80" as="geometry" />
        </mxCell>
        <mxCell id="AQNpCEezPJI_9NqC1QD4-3" value="Comment" style="ellipse;whiteSpace=wrap;html=1;" parent="1" vertex="1">
          <mxGeometry x="200" y="3250" width="120" height="80" as="geometry" />
        </mxCell>
        <mxCell id="AQNpCEezPJI_9NqC1QD4-4" value="Playlist" style="ellipse;whiteSpace=wrap;html=1;" parent="1" vertex="1">
          <mxGeometry x="710" y="3250" width="120" height="80" as="geometry" />
        </mxCell>
        <mxCell id="AQNpCEezPJI_9NqC1QD4-5" value="Tag" style="ellipse;whiteSpace=wrap;html=1;" parent="1" vertex="1">
          <mxGeometry x="190" y="3510" width="120" height="80" as="geometry" />
        </mxCell>
        <mxCell id="AQNpCEezPJI_9NqC1QD4-6" value="PlaylistPost" style="ellipse;whiteSpace=wrap;html=1;" parent="1" vertex="1">
          <mxGeometry x="710" y="3510" width="120" height="80" as="geometry" />
        </mxCell>
        <mxCell id="AQNpCEezPJI_9NqC1QD4-7" value="PostTag" style="ellipse;whiteSpace=wrap;html=1;" parent="1" vertex="1">
          <mxGeometry x="460" y="3660" width="120" height="80" as="geometry" />
        </mxCell>
        <mxCell id="AQNpCEezPJI_9NqC1QD4-8" value="" style="endArrow=classic;html=1;rounded=0;exitX=0.336;exitY=1.013;exitDx=0;exitDy=0;entryX=0.325;entryY=-0.037;entryDx=0;entryDy=0;exitPerimeter=0;entryPerimeter=0;" parent="1" source="AQNpCEezPJI_9NqC1QD4-1" target="AQNpCEezPJI_9NqC1QD4-2" edge="1">
          <mxGeometry width="50" height="50" relative="1" as="geometry">
            <mxPoint x="490" y="3460" as="sourcePoint" />
            <mxPoint x="540" y="3410" as="targetPoint" />
          </mxGeometry>
        </mxCell>
        <mxCell id="AQNpCEezPJI_9NqC1QD4-9" value="" style="endArrow=classic;html=1;rounded=0;entryX=0.5;entryY=1;entryDx=0;entryDy=0;exitX=0.5;exitY=0;exitDx=0;exitDy=0;" parent="1" source="AQNpCEezPJI_9NqC1QD4-2" target="AQNpCEezPJI_9NqC1QD4-1" edge="1">
          <mxGeometry width="50" height="50" relative="1" as="geometry">
            <mxPoint x="490" y="3400" as="sourcePoint" />
            <mxPoint x="540" y="3410" as="targetPoint" />
          </mxGeometry>
        </mxCell>
        <mxCell id="AQNpCEezPJI_9NqC1QD4-10" value="" style="endArrow=classic;html=1;rounded=0;exitX=1;exitY=0.5;exitDx=0;exitDy=0;entryX=0.231;entryY=0.013;entryDx=0;entryDy=0;entryPerimeter=0;" parent="1" source="AQNpCEezPJI_9NqC1QD4-1" target="AQNpCEezPJI_9NqC1QD4-4" edge="1">
          <mxGeometry width="50" height="50" relative="1" as="geometry">
            <mxPoint x="490" y="3460" as="sourcePoint" />
            <mxPoint x="540" y="3410" as="targetPoint" />
          </mxGeometry>
        </mxCell>
        <mxCell id="AQNpCEezPJI_9NqC1QD4-11" value="" style="endArrow=classic;html=1;rounded=0;exitX=0;exitY=0;exitDx=0;exitDy=0;entryX=1.003;entryY=0.671;entryDx=0;entryDy=0;entryPerimeter=0;" parent="1" source="AQNpCEezPJI_9NqC1QD4-4" target="AQNpCEezPJI_9NqC1QD4-1" edge="1">
          <mxGeometry width="50" height="50" relative="1" as="geometry">
            <mxPoint x="490" y="3460" as="sourcePoint" />
            <mxPoint x="540" y="3410" as="targetPoint" />
          </mxGeometry>
        </mxCell>
        <mxCell id="AQNpCEezPJI_9NqC1QD4-12" value="" style="endArrow=classic;html=1;rounded=0;exitX=1;exitY=0;exitDx=0;exitDy=0;entryX=0;entryY=0.5;entryDx=0;entryDy=0;" parent="1" source="AQNpCEezPJI_9NqC1QD4-3" target="AQNpCEezPJI_9NqC1QD4-1" edge="1">
          <mxGeometry width="50" height="50" relative="1" as="geometry">
            <mxPoint x="490" y="3460" as="sourcePoint" />
            <mxPoint x="540" y="3410" as="targetPoint" />
          </mxGeometry>
        </mxCell>
        <mxCell id="AQNpCEezPJI_9NqC1QD4-13" value="" style="endArrow=classic;html=1;rounded=0;exitX=0.953;exitY=0.813;exitDx=0;exitDy=0;exitPerimeter=0;" parent="1" source="AQNpCEezPJI_9NqC1QD4-3" target="AQNpCEezPJI_9NqC1QD4-2" edge="1">
          <mxGeometry width="50" height="50" relative="1" as="geometry">
            <mxPoint x="490" y="3460" as="sourcePoint" />
            <mxPoint x="540" y="3410" as="targetPoint" />
          </mxGeometry>
        </mxCell>
        <mxCell id="AQNpCEezPJI_9NqC1QD4-14" value="" style="endArrow=classic;html=1;rounded=0;exitX=0.008;exitY=0.696;exitDx=0;exitDy=0;exitPerimeter=0;entryX=0.969;entryY=0.254;entryDx=0;entryDy=0;entryPerimeter=0;" parent="1" source="AQNpCEezPJI_9NqC1QD4-1" target="AQNpCEezPJI_9NqC1QD4-3" edge="1">
          <mxGeometry width="50" height="50" relative="1" as="geometry">
            <mxPoint x="490" y="3460" as="sourcePoint" />
            <mxPoint x="540" y="3410" as="targetPoint" />
          </mxGeometry>
        </mxCell>
        <mxCell id="AQNpCEezPJI_9NqC1QD4-15" value="" style="endArrow=classic;html=1;rounded=0;exitX=0.008;exitY=0.254;exitDx=0;exitDy=0;exitPerimeter=0;" parent="1" source="AQNpCEezPJI_9NqC1QD4-2" target="AQNpCEezPJI_9NqC1QD4-3" edge="1">
          <mxGeometry width="50" height="50" relative="1" as="geometry">
            <mxPoint x="360" y="3440" as="sourcePoint" />
            <mxPoint x="540" y="3410" as="targetPoint" />
          </mxGeometry>
        </mxCell>
        <mxCell id="AQNpCEezPJI_9NqC1QD4-16" value="" style="endArrow=classic;html=1;rounded=0;entryX=0.947;entryY=0.796;entryDx=0;entryDy=0;entryPerimeter=0;exitX=0.003;exitY=0.329;exitDx=0;exitDy=0;exitPerimeter=0;" parent="1" source="AQNpCEezPJI_9NqC1QD4-7" target="AQNpCEezPJI_9NqC1QD4-5" edge="1">
          <mxGeometry width="50" height="50" relative="1" as="geometry">
            <mxPoint x="470" y="3550" as="sourcePoint" />
            <mxPoint x="540" y="3410" as="targetPoint" />
          </mxGeometry>
        </mxCell>
        <mxCell id="AQNpCEezPJI_9NqC1QD4-17" value="" style="endArrow=classic;html=1;rounded=0;entryX=0;entryY=0.5;entryDx=0;entryDy=0;" parent="1" source="AQNpCEezPJI_9NqC1QD4-5" target="AQNpCEezPJI_9NqC1QD4-7" edge="1">
          <mxGeometry width="50" height="50" relative="1" as="geometry">
            <mxPoint x="490" y="3460" as="sourcePoint" />
            <mxPoint x="540" y="3410" as="targetPoint" />
          </mxGeometry>
        </mxCell>
        <mxCell id="AQNpCEezPJI_9NqC1QD4-18" value="" style="curved=1;endArrow=classic;html=1;rounded=0;exitX=0;exitY=1;exitDx=0;exitDy=0;entryX=0.181;entryY=0.054;entryDx=0;entryDy=0;entryPerimeter=0;" parent="1" source="AQNpCEezPJI_9NqC1QD4-3" target="AQNpCEezPJI_9NqC1QD4-3" edge="1">
          <mxGeometry width="50" height="50" relative="1" as="geometry">
            <mxPoint x="490" y="3460" as="sourcePoint" />
            <mxPoint x="540" y="3410" as="targetPoint" />
            <Array as="points">
              <mxPoint x="80" y="3350" />
              <mxPoint x="80" y="3230" />
            </Array>
          </mxGeometry>
        </mxCell>
        <mxCell id="AQNpCEezPJI_9NqC1QD4-19" value="" style="curved=1;endArrow=classic;html=1;rounded=0;entryX=0.242;entryY=0.963;entryDx=0;entryDy=0;entryPerimeter=0;exitX=0.269;exitY=-0.012;exitDx=0;exitDy=0;exitPerimeter=0;" parent="1" source="AQNpCEezPJI_9NqC1QD4-3" target="AQNpCEezPJI_9NqC1QD4-3" edge="1">
          <mxGeometry width="50" height="50" relative="1" as="geometry">
            <mxPoint x="490" y="3460" as="sourcePoint" />
            <mxPoint x="540" y="3410" as="targetPoint" />
            <Array as="points">
              <mxPoint x="50" y="3180" />
              <mxPoint x="60" y="3400" />
            </Array>
          </mxGeometry>
        </mxCell>
        <mxCell id="AQNpCEezPJI_9NqC1QD4-20" value="" style="endArrow=classic;html=1;rounded=0;exitX=0.447;exitY=-0.004;exitDx=0;exitDy=0;exitPerimeter=0;entryX=0.431;entryY=0.996;entryDx=0;entryDy=0;entryPerimeter=0;" parent="1" source="AQNpCEezPJI_9NqC1QD4-7" target="AQNpCEezPJI_9NqC1QD4-2" edge="1">
          <mxGeometry width="50" height="50" relative="1" as="geometry">
            <mxPoint x="490" y="3460" as="sourcePoint" />
            <mxPoint x="540" y="3410" as="targetPoint" />
          </mxGeometry>
        </mxCell>
        <mxCell id="AQNpCEezPJI_9NqC1QD4-21" value="" style="endArrow=classic;html=1;rounded=0;exitX=0.5;exitY=1;exitDx=0;exitDy=0;entryX=0.569;entryY=-0.012;entryDx=0;entryDy=0;entryPerimeter=0;" parent="1" source="AQNpCEezPJI_9NqC1QD4-2" target="AQNpCEezPJI_9NqC1QD4-7" edge="1">
          <mxGeometry width="50" height="50" relative="1" as="geometry">
            <mxPoint x="628.5" y="3660" as="sourcePoint" />
            <mxPoint x="626.5" y="3470" as="targetPoint" />
          </mxGeometry>
        </mxCell>
        <mxCell id="AQNpCEezPJI_9NqC1QD4-22" value="" style="endArrow=classic;html=1;rounded=0;exitX=0.5;exitY=1;exitDx=0;exitDy=0;entryX=0.569;entryY=-0.012;entryDx=0;entryDy=0;entryPerimeter=0;" parent="1" source="AQNpCEezPJI_9NqC1QD4-4" edge="1">
          <mxGeometry width="50" height="50" relative="1" as="geometry">
            <mxPoint x="766" y="3321" as="sourcePoint" />
            <mxPoint x="774" y="3510" as="targetPoint" />
          </mxGeometry>
        </mxCell>
        <mxCell id="AQNpCEezPJI_9NqC1QD4-23" value="" style="endArrow=classic;html=1;rounded=0;entryX=0.403;entryY=1.013;entryDx=0;entryDy=0;entryPerimeter=0;exitX=0.397;exitY=-0.029;exitDx=0;exitDy=0;exitPerimeter=0;" parent="1" source="AQNpCEezPJI_9NqC1QD4-6" target="AQNpCEezPJI_9NqC1QD4-4" edge="1">
          <mxGeometry width="50" height="50" relative="1" as="geometry">
            <mxPoint x="620" y="3470" as="sourcePoint" />
            <mxPoint x="784" y="3520" as="targetPoint" />
          </mxGeometry>
        </mxCell>
        <mxCell id="AQNpCEezPJI_9NqC1QD4-24" value="" style="endArrow=classic;html=1;rounded=0;entryX=0.992;entryY=0.729;entryDx=0;entryDy=0;entryPerimeter=0;" parent="1" source="AQNpCEezPJI_9NqC1QD4-6" target="AQNpCEezPJI_9NqC1QD4-2" edge="1">
          <mxGeometry width="50" height="50" relative="1" as="geometry">
            <mxPoint x="490" y="3460" as="sourcePoint" />
            <mxPoint x="540" y="3410" as="targetPoint" />
          </mxGeometry>
        </mxCell>
        <mxCell id="AQNpCEezPJI_9NqC1QD4-25" value="" style="endArrow=classic;html=1;rounded=0;entryX=-0.008;entryY=0.288;entryDx=0;entryDy=0;entryPerimeter=0;" parent="1" source="AQNpCEezPJI_9NqC1QD4-2" target="AQNpCEezPJI_9NqC1QD4-6" edge="1">
          <mxGeometry width="50" height="50" relative="1" as="geometry">
            <mxPoint x="490" y="3460" as="sourcePoint" />
            <mxPoint x="540" y="3410" as="targetPoint" />
          </mxGeometry>
        </mxCell>
        <mxCell id="AQNpCEezPJI_9NqC1QD4-26" value="One to many" style="text;html=1;strokeColor=none;fillColor=none;align=center;verticalAlign=middle;whiteSpace=wrap;rounded=0;" parent="1" vertex="1">
          <mxGeometry x="625" y="3160" width="60" height="30" as="geometry" />
        </mxCell>
        <mxCell id="AQNpCEezPJI_9NqC1QD4-27" value="One to many" style="text;html=1;strokeColor=none;fillColor=none;align=center;verticalAlign=middle;whiteSpace=wrap;rounded=0;" parent="1" vertex="1">
          <mxGeometry x="290" y="3630" width="60" height="30" as="geometry" />
        </mxCell>
        <mxCell id="AQNpCEezPJI_9NqC1QD4-28" value="One to many" style="text;html=1;strokeColor=none;fillColor=none;align=center;verticalAlign=middle;whiteSpace=wrap;rounded=0;" parent="1" vertex="1">
          <mxGeometry x="530" y="3530" width="60" height="30" as="geometry" />
        </mxCell>
        <mxCell id="AQNpCEezPJI_9NqC1QD4-29" value="One to many" style="text;html=1;strokeColor=none;fillColor=none;align=center;verticalAlign=middle;whiteSpace=wrap;rounded=0;" parent="1" vertex="1">
          <mxGeometry x="625" y="3510" width="60" height="30" as="geometry" />
        </mxCell>
        <mxCell id="AQNpCEezPJI_9NqC1QD4-30" value="One to many" style="text;html=1;strokeColor=none;fillColor=none;align=center;verticalAlign=middle;whiteSpace=wrap;rounded=0;" parent="1" vertex="1">
          <mxGeometry x="770" y="3380" width="60" height="30" as="geometry" />
        </mxCell>
        <mxCell id="AQNpCEezPJI_9NqC1QD4-31" value="One to many" style="text;html=1;strokeColor=none;fillColor=none;align=center;verticalAlign=middle;whiteSpace=wrap;rounded=0;" parent="1" vertex="1">
          <mxGeometry x="440" y="3270" width="60" height="30" as="geometry" />
        </mxCell>
        <mxCell id="AQNpCEezPJI_9NqC1QD4-32" value="One to many" style="text;html=1;strokeColor=none;fillColor=none;align=center;verticalAlign=middle;whiteSpace=wrap;rounded=0;" parent="1" vertex="1">
          <mxGeometry x="395.5" y="3210" width="60" height="30" as="geometry" />
        </mxCell>
        <mxCell id="AQNpCEezPJI_9NqC1QD4-33" value="One to many" style="text;html=1;strokeColor=none;fillColor=none;align=center;verticalAlign=middle;whiteSpace=wrap;rounded=0;" parent="1" vertex="1">
          <mxGeometry x="330" y="3360" width="60" height="30" as="geometry" />
        </mxCell>
        <mxCell id="AQNpCEezPJI_9NqC1QD4-34" value="One to many" style="text;html=1;strokeColor=none;fillColor=none;align=center;verticalAlign=middle;whiteSpace=wrap;rounded=0;" parent="1" vertex="1">
          <mxGeometry x="75" y="3275" width="60" height="30" as="geometry" />
        </mxCell>
        <mxCell id="cTr7hFYzPPPAO2Kh4fxT-1" value="React Router" style="rounded=0;whiteSpace=wrap;html=1;" vertex="1" parent="1">
          <mxGeometry x="290" width="120" height="60" as="geometry" />
        </mxCell>
        <mxCell id="cTr7hFYzPPPAO2Kh4fxT-2" value="" style="endArrow=classic;html=1;rounded=0;exitX=0.5;exitY=1;exitDx=0;exitDy=0;entryX=0.5;entryY=0;entryDx=0;entryDy=0;" edge="1" parent="1" source="SFf2Btg46Zuehb72WBfB-1" target="cTr7hFYzPPPAO2Kh4fxT-1">
          <mxGeometry width="50" height="50" relative="1" as="geometry">
            <mxPoint x="500" y="10" as="sourcePoint" />
            <mxPoint x="550" y="-40" as="targetPoint" />
          </mxGeometry>
        </mxCell>
        <mxCell id="cTr7hFYzPPPAO2Kh4fxT-3" value="PlaylistFetcher.js" style="rounded=0;whiteSpace=wrap;html=1;" vertex="1" parent="1">
          <mxGeometry x="850" y="120" width="120" height="60" as="geometry" />
        </mxCell>
        <mxCell id="cTr7hFYzPPPAO2Kh4fxT-4" value="" style="endArrow=classic;html=1;rounded=0;exitX=0.5;exitY=1;exitDx=0;exitDy=0;entryX=0.5;entryY=0;entryDx=0;entryDy=0;" edge="1" parent="1" source="cTr7hFYzPPPAO2Kh4fxT-3" target="SFf2Btg46Zuehb72WBfB-100">
          <mxGeometry width="50" height="50" relative="1" as="geometry">
            <mxPoint x="530" y="310" as="sourcePoint" />
            <mxPoint x="580" y="260" as="targetPoint" />
          </mxGeometry>
        </mxCell>
        <mxCell id="cTr7hFYzPPPAO2Kh4fxT-5" value="EditPostFetcher.js" style="rounded=0;whiteSpace=wrap;html=1;" vertex="1" parent="1">
          <mxGeometry x="250" y="210" width="120" height="60" as="geometry" />
        </mxCell>
        <mxCell id="cTr7hFYzPPPAO2Kh4fxT-6" value="" style="endArrow=classic;html=1;rounded=0;entryX=0.5;entryY=0;entryDx=0;entryDy=0;exitX=0.5;exitY=1;exitDx=0;exitDy=0;" edge="1" parent="1" source="SFf2Btg46Zuehb72WBfB-14" target="cTr7hFYzPPPAO2Kh4fxT-5">
          <mxGeometry width="50" height="50" relative="1" as="geometry">
            <mxPoint x="180" y="190" as="sourcePoint" />
            <mxPoint x="510" y="130" as="targetPoint" />
          </mxGeometry>
        </mxCell>
        <mxCell id="cTr7hFYzPPPAO2Kh4fxT-7" value="Edit.js" style="rounded=0;whiteSpace=wrap;html=1;" vertex="1" parent="1">
          <mxGeometry x="160" y="300" width="120" height="60" as="geometry" />
        </mxCell>
        <mxCell id="cTr7hFYzPPPAO2Kh4fxT-8" value="" style="endArrow=classic;html=1;rounded=0;exitX=0.5;exitY=1;exitDx=0;exitDy=0;entryX=0.5;entryY=0;entryDx=0;entryDy=0;" edge="1" parent="1" source="cTr7hFYzPPPAO2Kh4fxT-5" target="cTr7hFYzPPPAO2Kh4fxT-7">
          <mxGeometry width="50" height="50" relative="1" as="geometry">
            <mxPoint x="460" y="360" as="sourcePoint" />
            <mxPoint x="510" y="310" as="targetPoint" />
          </mxGeometry>
        </mxCell>
        <mxCell id="cTr7hFYzPPPAO2Kh4fxT-9" value="SubmitComment.js" style="rounded=0;whiteSpace=wrap;html=1;" vertex="1" parent="1">
          <mxGeometry x="625" y="210" width="120" height="60" as="geometry" />
        </mxCell>
        <mxCell id="cTr7hFYzPPPAO2Kh4fxT-10" value="PostCard.js" style="rounded=0;whiteSpace=wrap;html=1;" vertex="1" parent="1">
          <mxGeometry x="-150" y="300" width="120" height="60" as="geometry" />
        </mxCell>
        <mxCell id="cTr7hFYzPPPAO2Kh4fxT-11" value="PlaylistCard.js" style="rounded=0;whiteSpace=wrap;html=1;" vertex="1" parent="1">
          <mxGeometry x="-20" y="300" width="120" height="60" as="geometry" />
        </mxCell>
        <mxCell id="cTr7hFYzPPPAO2Kh4fxT-13" value="Posts.js" style="rounded=0;whiteSpace=wrap;html=1;" vertex="1" parent="1">
          <mxGeometry x="370" y="120" width="120" height="60" as="geometry" />
        </mxCell>
        <mxCell id="cTr7hFYzPPPAO2Kh4fxT-14" value="PostCardList.js" style="rounded=0;whiteSpace=wrap;html=1;" vertex="1" parent="1">
          <mxGeometry x="370" y="300" width="120" height="60" as="geometry" />
        </mxCell>
        <mxCell id="cTr7hFYzPPPAO2Kh4fxT-15" value="" style="endArrow=classic;html=1;rounded=0;exitX=0.5;exitY=1;exitDx=0;exitDy=0;entryX=0.5;entryY=0;entryDx=0;entryDy=0;" edge="1" parent="1" source="cTr7hFYzPPPAO2Kh4fxT-13" target="cTr7hFYzPPPAO2Kh4fxT-14">
          <mxGeometry width="50" height="50" relative="1" as="geometry">
            <mxPoint x="410" y="310" as="sourcePoint" />
            <mxPoint x="460" y="260" as="targetPoint" />
          </mxGeometry>
        </mxCell>
        <mxCell id="cTr7hFYzPPPAO2Kh4fxT-16" value="" style="endArrow=classic;html=1;rounded=0;exitX=1;exitY=1;exitDx=0;exitDy=0;entryX=0.5;entryY=0;entryDx=0;entryDy=0;" edge="1" parent="1" source="cTr7hFYzPPPAO2Kh4fxT-1" target="cTr7hFYzPPPAO2Kh4fxT-13">
          <mxGeometry width="50" height="50" relative="1" as="geometry">
            <mxPoint x="410" y="210" as="sourcePoint" />
            <mxPoint x="460" y="160" as="targetPoint" />
          </mxGeometry>
        </mxCell>
        <mxCell id="cTr7hFYzPPPAO2Kh4fxT-17" value="Playlists.js" style="rounded=0;whiteSpace=wrap;html=1;" vertex="1" parent="1">
          <mxGeometry x="700" y="120" width="120" height="60" as="geometry" />
        </mxCell>
        <mxCell id="cTr7hFYzPPPAO2Kh4fxT-18" value="AddToPlaylist.js" style="rounded=0;whiteSpace=wrap;html=1;" vertex="1" parent="1">
          <mxGeometry x="-150" y="390" width="120" height="60" as="geometry" />
        </mxCell>
        <mxCell id="cTr7hFYzPPPAO2Kh4fxT-20" value="" style="endArrow=classic;html=1;rounded=0;entryX=0.5;entryY=0;entryDx=0;entryDy=0;exitX=0.5;exitY=1;exitDx=0;exitDy=0;" edge="1" parent="1" source="SFf2Btg46Zuehb72WBfB-65" target="cTr7hFYzPPPAO2Kh4fxT-9">
          <mxGeometry width="50" height="50" relative="1" as="geometry">
            <mxPoint x="410" y="210" as="sourcePoint" />
            <mxPoint x="460" y="160" as="targetPoint" />
          </mxGeometry>
        </mxCell>
        <mxCell id="cTr7hFYzPPPAO2Kh4fxT-21" value="" style="endArrow=classic;html=1;rounded=0;exitX=1;exitY=0.5;exitDx=0;exitDy=0;entryX=0;entryY=0.5;entryDx=0;entryDy=0;" edge="1" parent="1" source="SFf2Btg46Zuehb72WBfB-69" target="cTr7hFYzPPPAO2Kh4fxT-9">
          <mxGeometry width="50" height="50" relative="1" as="geometry">
            <mxPoint x="590" y="440" as="sourcePoint" />
            <mxPoint x="640" y="390" as="targetPoint" />
          </mxGeometry>
        </mxCell>
        <mxCell id="cTr7hFYzPPPAO2Kh4fxT-23" value="" style="curved=1;endArrow=classic;html=1;rounded=0;entryX=0.75;entryY=1;entryDx=0;entryDy=0;exitX=0.25;exitY=1;exitDx=0;exitDy=0;" edge="1" parent="1" source="SFf2Btg46Zuehb72WBfB-69" target="SFf2Btg46Zuehb72WBfB-69">
          <mxGeometry width="50" height="50" relative="1" as="geometry">
            <mxPoint x="350" y="110" as="sourcePoint" />
            <mxPoint x="460" y="160" as="targetPoint" />
            <Array as="points">
              <mxPoint x="500" y="320" />
              <mxPoint x="560" y="320" />
            </Array>
          </mxGeometry>
        </mxCell>
        <mxCell id="cTr7hFYzPPPAO2Kh4fxT-24" value="" style="endArrow=classic;html=1;rounded=0;exitX=0.5;exitY=1;exitDx=0;exitDy=0;entryX=0.5;entryY=0;entryDx=0;entryDy=0;" edge="1" parent="1" source="cTr7hFYzPPPAO2Kh4fxT-10" target="cTr7hFYzPPPAO2Kh4fxT-18">
          <mxGeometry width="50" height="50" relative="1" as="geometry">
            <mxPoint x="410" y="210" as="sourcePoint" />
            <mxPoint x="460" y="160" as="targetPoint" />
          </mxGeometry>
        </mxCell>
        <mxCell id="cTr7hFYzPPPAO2Kh4fxT-25" value="" style="endArrow=classic;html=1;rounded=0;exitX=1;exitY=1;exitDx=0;exitDy=0;entryX=0;entryY=0;entryDx=0;entryDy=0;" edge="1" parent="1" source="cTr7hFYzPPPAO2Kh4fxT-1" target="cTr7hFYzPPPAO2Kh4fxT-17">
          <mxGeometry width="50" height="50" relative="1" as="geometry">
            <mxPoint x="410" y="210" as="sourcePoint" />
            <mxPoint x="460" y="160" as="targetPoint" />
          </mxGeometry>
        </mxCell>
        <mxCell id="cTr7hFYzPPPAO2Kh4fxT-26" value="AddToPlaylist.js" style="rounded=0;whiteSpace=wrap;html=1;" vertex="1" parent="1">
          <mxGeometry x="565" y="300" width="120" height="60" as="geometry" />
        </mxCell>
        <mxCell id="cTr7hFYzPPPAO2Kh4fxT-27" value="" style="endArrow=classic;html=1;rounded=0;exitX=0.5;exitY=1;exitDx=0;exitDy=0;entryX=0.5;entryY=0;entryDx=0;entryDy=0;" edge="1" parent="1" source="SFf2Btg46Zuehb72WBfB-65" target="cTr7hFYzPPPAO2Kh4fxT-26">
          <mxGeometry width="50" height="50" relative="1" as="geometry">
            <mxPoint x="410" y="210" as="sourcePoint" />
            <mxPoint x="460" y="160" as="targetPoint" />
          </mxGeometry>
        </mxCell>
        <mxCell id="cTr7hFYzPPPAO2Kh4fxT-28" value="PlaylistCardList.js" style="rounded=0;whiteSpace=wrap;html=1;" vertex="1" parent="1">
          <mxGeometry x="700" y="300" width="120" height="60" as="geometry" />
        </mxCell>
        <mxCell id="cTr7hFYzPPPAO2Kh4fxT-29" value="" style="endArrow=classic;html=1;rounded=0;entryX=0.5;entryY=0;entryDx=0;entryDy=0;exitX=0.5;exitY=1;exitDx=0;exitDy=0;" edge="1" parent="1" source="cTr7hFYzPPPAO2Kh4fxT-28" target="cTr7hFYzPPPAO2Kh4fxT-30">
          <mxGeometry width="50" height="50" relative="1" as="geometry">
            <mxPoint x="1120" y="530" as="sourcePoint" />
            <mxPoint x="1270" y="450" as="targetPoint" />
          </mxGeometry>
        </mxCell>
        <mxCell id="cTr7hFYzPPPAO2Kh4fxT-30" value="PlaylistCard.js" style="rounded=0;whiteSpace=wrap;html=1;" vertex="1" parent="1">
          <mxGeometry x="700" y="400" width="120" height="60" as="geometry" />
        </mxCell>
        <mxCell id="cTr7hFYzPPPAO2Kh4fxT-31" value="" style="endArrow=classic;html=1;rounded=0;exitX=0.5;exitY=1;exitDx=0;exitDy=0;entryX=0.5;entryY=0;entryDx=0;entryDy=0;" edge="1" parent="1" source="cTr7hFYzPPPAO2Kh4fxT-17" target="cTr7hFYzPPPAO2Kh4fxT-28">
          <mxGeometry width="50" height="50" relative="1" as="geometry">
            <mxPoint x="410" y="210" as="sourcePoint" />
            <mxPoint x="460" y="160" as="targetPoint" />
          </mxGeometry>
        </mxCell>
        <mxCell id="cTr7hFYzPPPAO2Kh4fxT-32" value="PostCard.js" style="rounded=0;whiteSpace=wrap;html=1;" vertex="1" parent="1">
          <mxGeometry x="370" y="380" width="120" height="60" as="geometry" />
        </mxCell>
        <mxCell id="cTr7hFYzPPPAO2Kh4fxT-33" value="AddToPlaylist.js" style="rounded=0;whiteSpace=wrap;html=1;" vertex="1" parent="1">
          <mxGeometry x="370" y="470" width="120" height="60" as="geometry" />
        </mxCell>
        <mxCell id="cTr7hFYzPPPAO2Kh4fxT-34" value="" style="endArrow=classic;html=1;rounded=0;exitX=0.5;exitY=1;exitDx=0;exitDy=0;entryX=0.5;entryY=0;entryDx=0;entryDy=0;" edge="1" parent="1" source="cTr7hFYzPPPAO2Kh4fxT-32" target="cTr7hFYzPPPAO2Kh4fxT-33">
          <mxGeometry width="50" height="50" relative="1" as="geometry">
            <mxPoint x="930" y="290" as="sourcePoint" />
            <mxPoint x="980" y="240" as="targetPoint" />
          </mxGeometry>
        </mxCell>
        <mxCell id="cTr7hFYzPPPAO2Kh4fxT-35" value="" style="endArrow=classic;html=1;rounded=0;exitX=0.5;exitY=1;exitDx=0;exitDy=0;entryX=0.5;entryY=0;entryDx=0;entryDy=0;" edge="1" parent="1" source="cTr7hFYzPPPAO2Kh4fxT-14" target="cTr7hFYzPPPAO2Kh4fxT-32">
          <mxGeometry width="50" height="50" relative="1" as="geometry">
            <mxPoint x="410" y="210" as="sourcePoint" />
            <mxPoint x="460" y="160" as="targetPoint" />
          </mxGeometry>
        </mxCell>
        <mxCell id="cTr7hFYzPPPAO2Kh4fxT-36" value="PlaylistCard.js" style="rounded=0;whiteSpace=wrap;html=1;" vertex="1" parent="1">
          <mxGeometry x="850" y="400" width="120" height="60" as="geometry" />
        </mxCell>
      </root>
    </mxGraphModel>
  </diagram>
</mxfile>
